<?xml version="1.0" encoding="utf-8"?>
<!-- Generator: Adobe Illustrator 22.0.1, SVG Export Plug-In . SVG Version: 6.00 Build 0)  -->
<svg version="1.1" id="layer_1" xmlns="http://www.w3.org/2000/svg" xmlns:xlink="http://www.w3.org/1999/xlink" x="0px" y="0px"
	 width="1400px" height="1400px" viewBox="0 0 1400 1400" style="enable-background:new 0 0 1400 1400;" xml:space="preserve">
<style type="text/css">
	.st0{fill:#FFD278;}
	.st1{fill:#FFDC9F;}
	.st2{fill:#F2F2F2;}
	.st3{fill:#FFEED2;}
	.st4{fill:#3B6899;}
	.st5{fill:#FFE659;}
	.st6{fill:#F05757;}
	.st7{fill:#DFC34E;}
	.st8{fill:#D8505E;}
	.st9{fill:#D34A58;}
	.st10{opacity:0.4;}
	.st11{fill:#C52026;}
	.st12{fill:#4D7FBA;}
	.st13{fill:#6EA3CA;}
	.st14{fill:#37A9A3;}
	.st15{fill:#34499E;}
	.st16{fill:#329B93;}
	.st17{fill:#2D458E;}
	.st18{fill:#28417F;}
	.st19{fill:#26397A;}
	.st20{fill:#213063;}
	.st21{fill:#A8C9E4;}
</style>
<g>
	<g>
		<rect x="0" class="st0" width="1400" height="1400"/>
	</g>
	<g>
		<g>
			<g>
				
					<ellipse transform="matrix(0.7071 -0.7071 0.7071 0.7071 -321.5999 713.1023)" class="st1" cx="700" cy="744.8" rx="549.3" ry="549.3"/>
			</g>
			<g>
				<circle class="st1" cx="697.5" cy="223.4" r="10.5"/>
			</g>
		</g>
		<g>
			<rect x="697" class="st2" width="1" height="223.4"/>
		</g>
	</g>
	<g>
		<g>
			<g>
				
					<ellipse transform="matrix(0.7071 -0.7071 0.7071 0.7071 -328.3056 696.9127)" class="st3" cx="677.1" cy="744.8" rx="405.7" ry="405.7"/>
			</g>
			<g>
				<circle class="st3" cx="674.6" cy="370.9" r="9.6"/>
			</g>
		</g>
		<g>
			<rect x="674.1" class="st2" width="1" height="370.9"/>
		</g>
	</g>
	<g>
		<path class="st2" d="M457.5,176c-1.7,0-3.3,0.2-4.9,0.7c0-0.5,0-0.9,0-1.4c0-16.4-13.3-29.7-29.7-29.7c-2.5,0-5,0.3-7.3,0.9
			c-7.5-14.7-22.9-24.8-40.6-24.8c-19.4,0-35.9,12.1-42.5,29.1c-3.7-3.2-8.5-5.2-13.7-5.2c-11.4,0-20.7,9.3-20.7,20.7
			c0,0.7,0,1.4,0.1,2.1c-3.1-1.6-6.7-2.5-10.5-2.5c-13,0-23.5,10.5-23.5,23.5c0,13,10.5,23.5,23.5,23.5h167.7
			c0.7,0.1,1.4,0.1,2.1,0.1c10.2,0,18.4-8.3,18.4-18.4C475.9,184.3,467.6,176,457.5,176z M370,146.9c-4.1,0-7.5-3.3-7.5-7.5
			c0-4.1,3.3-7.5,7.5-7.5c4.1,0,7.5,3.3,7.5,7.5C377.5,143.6,374.1,146.9,370,146.9z"/>
		<g>
			<rect x="369.5" class="st2" width="1" height="139.5"/>
		</g>
	</g>
	<g>
		<path class="st2" d="M1102.7,251c-2.3,0-4.6,0.3-6.7,0.9c0-0.6,0-1.3,0-1.9c0-22.6-18.3-41-41-41c-3.5,0-6.9,0.4-10.1,1.3
			c-10.4-20.3-31.5-34.2-55.9-34.2c-26.7,0-49.5,16.7-58.6,40.1c-5-4.5-11.6-7.2-18.9-7.2c-15.7,0-28.5,12.8-28.5,28.5
			c0,1,0,1.9,0.1,2.9c-4.3-2.2-9.2-3.4-14.4-3.4c-17.9,0-32.3,14.5-32.3,32.3c0,17.9,14.5,32.3,32.3,32.3h231.1
			c0.9,0.1,1.9,0.2,2.9,0.2c14,0,25.4-11.4,25.4-25.4C1128.1,262.4,1116.8,251,1102.7,251z M982.3,207c-4.9,0-8.8-3.9-8.8-8.8
			s3.9-8.8,8.8-8.8c4.9,0,8.8,3.9,8.8,8.8S987.2,207,982.3,207z"/>
		<g>
			<rect x="981.8" class="st2" width="1" height="198.2"/>
		</g>
	</g>
	<g>
		<path class="st2" d="M1305.4,603.1c-3.8,0-7.5,0.5-11,1.5c0-1,0.1-2.1,0.1-3.2c0-36.9-29.9-66.8-66.8-66.8
			c-5.7,0-11.2,0.7-16.5,2.1c-17-33.1-51.4-55.8-91.2-55.8c-43.5,0-80.7,27.2-95.5,65.4c-8.2-7.3-19-11.7-30.8-11.7
			c-25.7,0-46.5,20.8-46.5,46.5c0,1.6,0.1,3.1,0.2,4.7c-7.1-3.5-15.1-5.5-23.5-5.5c-29.1,0-52.7,23.6-52.7,52.7
			c0,29.1,23.6,52.7,52.7,52.7h376.9c1.5,0.2,3.1,0.3,4.7,0.3c22.9,0,41.4-18.5,41.4-41.4S1328.2,603.1,1305.4,603.1z M1116.5,514.3
			c-5.1,0-9.2-4.1-9.2-9.2c0-5.1,4.1-9.2,9.2-9.2c5.1,0,9.2,4.1,9.2,9.2C1125.8,510.2,1121.6,514.3,1116.5,514.3z"/>
		<g>
			<rect x="1116" class="st2" width="1" height="507.2"/>
		</g>
	</g>
	<g>
		<g>
			<path class="st4" d="M0,925.2c0,0,124.2-93.7,219.1-66.9C314,885,394.8,950.7,539.5,902c144.7-48.6,267.5,44.3,342.2,23.2
				c74.7-21.1,341.2-132.6,518.3,13.3V1400H0V925.2z"/>
		</g>
		<g>
			<polygon class="st5" points="1003.7,912.7 998.2,939.4 992.6,938.8 948.8,934 869.7,925.5 824.1,864.1 830.6,810.5 883,864.8 
				894,881.6 927.3,891 			"/>
			<polygon class="st6" points="1015.9,824.2 883,864.8 830.6,810.5 834.2,810.8 			"/>
			<polygon class="st7" points="927.3,891 894,881.6 922.2,873.9 			"/>
			<polygon class="st8" points="1003.7,912.7 927.3,891 922.2,873.9 894,881.6 883,864.8 1015.9,824.2 			"/>
			<polygon class="st8" points="998.1,939.4 1003.5,912.6 1015.9,824.2 1076,851.7 1111.2,899 1113.3,901.8 1142.9,941.6 			"/>
			<polygon class="st6" points="1218.3,862.2 1202.4,889.2 1148.6,887 1172.9,861.1 1173.5,861.6 			"/>
			<polygon class="st8" points="1252.8,919.7 1194.7,917.2 1194.5,918.1 1148.6,887 1202.4,889.2 			"/>
			<polygon class="st9" points="1184.5,911.3 1142.9,941.6 1113.3,901.8 1148.6,887 			"/>
			<g>
				<g class="st10">
					<polygon class="st11" points="830.6,810.5 892.5,883.3 927.8,892.5 927.3,891 894,881.6 883,864.8 					"/>
				</g>
				<g class="st10">
					<polygon class="st11" points="929.6,898.5 939.3,933.1 948.8,934 					"/>
				</g>
				<g class="st10">
					<polygon class="st11" points="1015.9,824.2 1005.8,913 1002.1,939.5 998.2,939.4 1003.7,912.7 					"/>
				</g>
				<g class="st10">
					<polygon class="st11" points="1144.9,940.2 1142.9,941.6 1113.3,901.8 					"/>
				</g>
				<g class="st10">
					<polygon class="st11" points="894,881.6 922.4,872.5 1003.7,912.7 922.2,873.9 					"/>
				</g>
				<g class="st10">
					<polygon class="st11" points="1148.6,887 1172.5,920.1 1184.5,911.3 					"/>
				</g>
			</g>
			<g class="st10">
				<polygon class="st11" points="1202.4,889.2 1194.7,917.2 1197,917.3 				"/>
			</g>
			<g class="st10">
				<polygon class="st11" points="1202.4,889.2 1173.5,861.6 1174.7,861.6 				"/>
			</g>
		</g>
		<g>
			<path class="st12" d="M1400,907.2v482.9L0,1400V954.3c0,0,119.5-73.1,276.6,14.1c157.1,87.2,299.1,58.9,507.6-40.1
				C992.7,829.4,1110.9,1006.2,1400,907.2z"/>
		</g>
		<g>
			<path class="st13" d="M0,1072.5c0,0,230-160.7,441.5-79.2c211.6,81.4,273.8,134.3,482.2,92.4c208.4-41.8,358.3-74.8,476.3,28.6
				V1400H0V1072.5z"/>
		</g>
		<g>
			<polygon class="st14" points="649.6,1168.8 648.5,1223.4 637.2,1224.3 549.2,1230.9 390.5,1243 278.3,1138.7 271.4,1030.9 
				394.4,1118.6 422.3,1147.6 491.2,1154 			"/>
			<polygon class="st15" points="641.2,990.2 394.4,1118.6 271.4,1030.9 278.6,1030.1 			"/>
			<polygon class="st16" points="491.2,1154 422.3,1147.6 474.8,1122.2 			"/>
			<polygon class="st17" points="649.6,1168.8 491.2,1154 474.8,1122.2 422.3,1147.6 394.4,1118.6 641.2,990.2 			"/>
			<polygon class="st17" points="648.5,1223.4 649.6,1168.8 641.2,990.2 779,1022.1 871.8,1102.3 877.3,1107.1 955.6,1174.7 			"/>
			<polygon class="st15" points="1100.4,988.2 1060.7,1049.6 946.1,1065 999.2,1003.8 			"/>
			<polygon class="st17" points="1179.1,1091.1 1062.2,1102 1037.3,1094.1 946.1,1065 1060.7,1049.6 			"/>
			<polygon class="st18" points="1037.3,1094.1 955.6,1174.7 877.3,1107.1 946.1,1065 			"/>
			<polygon class="st19" points="946.1,1065 877.3,1107.1 779,1022.1 877.3,1104 			"/>
			<polygon class="st19" points="779,1022.1 641.2,990.2 278.6,1030.1 278.5,1023.2 634,977.2 			"/>
			<polygon class="st18" points="649.6,1168.8 498.5,1168 491.2,1154 474.8,1122.2 			"/>
			<g>
				<g class="st10">
					<polygon class="st20" points="271.4,1030.9 419.8,1151.5 492.6,1156.7 491.2,1154 422.3,1147.6 394.4,1118.6 					"/>
				</g>
				<g class="st10">
					<polygon class="st20" points="498.5,1168 530.3,1232.5 549.2,1230.9 					"/>
				</g>
				<g class="st10">
					<polygon class="st20" points="641.2,990.2 653.8,1168.7 656.3,1222.2 648.5,1223.4 649.6,1168.8 					"/>
				</g>
				<g class="st10">
					<polygon class="st20" points="879.2,1106 959.1,1171.2 955.6,1174.7 877.3,1107.1 					"/>
				</g>
				<g class="st10">
					<polygon class="st20" points="422.3,1147.6 473.3,1110.3 649.6,1168.8 474.8,1122.2 					"/>
				</g>
				<g class="st10">
					<polygon class="st20" points="946.1,1065 1021.3,1109.9 1037.3,1094.1 					"/>
				</g>
			</g>
		</g>
		<g>
			<path class="st21" d="M0,1185.1V1400h1400v-164.6c0,0-187.3-139.1-393.8-126.5c-206.5,12.6-258.2,178.4-533.5,88.8
				C159.6,1095.8,96.2,1093.9,0,1185.1z"/>
		</g>
		<g>
			<polygon class="st15" points="649.6,1168.8 613.2,1312.9 498.5,1168 			"/>
			<polygon class="st18" points="649.6,1168.8 648.5,1223 648.7,1301.1 613.2,1312.9 635.1,1222.7 			"/>
		</g>
		<g>
			<polygon class="st6" points="1003.7,912.7 955.6,946.6 929.6,898.5 			"/>
			<polygon class="st9" points="1003.7,912.7 998.2,939.4 990.1,979 974.4,981.4 955.6,946.6 			"/>
			<polygon class="st9" points="1003.7,912.7 929.6,898.5 927.3,891 922.2,873.9 			"/>
		</g>
	</g>
	<g>
		<path class="st2" d="M445.2,445.9c-2.8,0-5.6,0.4-8.1,1.1c0-0.8,0.1-1.6,0.1-2.3c0-27.3-22.1-49.5-49.5-49.5
			c-4.2,0-8.3,0.5-12.2,1.5c-12.6-24.5-38.1-41.3-67.5-41.3c-32.2,0-59.8,20.1-70.7,48.5c-6.1-5.4-14.1-8.7-22.8-8.7
			c-19,0-34.4,15.4-34.4,34.4c0,1.2,0.1,2.3,0.2,3.5c-5.2-2.6-11.2-4.1-17.4-4.1c-21.6,0-39,17.5-39,39c0,21.6,17.5,39,39,39h279.1
			c1.1,0.1,2.3,0.2,3.5,0.2c16.9,0,30.7-13.7,30.7-30.7C475.9,459.6,462.1,445.9,445.2,445.9z M307.9,387.3c-4.5,0-8.2-3.7-8.2-8.2
			c0-4.5,3.7-8.2,8.2-8.2c4.5,0,8.2,3.7,8.2,8.2C316.1,383.6,312.4,387.3,307.9,387.3z"/>
		<g>
			<rect x="307.4" class="st2" width="1" height="379.1"/>
		</g>
	</g>
</g>
</svg>
